<svg id="Group_7" data-name="Group 7" xmlns="http://www.w3.org/2000/svg" xmlns:xlink="http://www.w3.org/1999/xlink" width="42.985" height="43.178" viewBox="0 0 42.985 43.178">
  <defs>
    <linearGradient id="linear-gradient" x1="0.5" y1="1" x2="0.5" gradientUnits="objectBoundingBox">
      <stop offset="0" stop-color="#20b038"/>
      <stop offset="1" stop-color="#60d66a"/>
    </linearGradient>
  </defs>
  <path id="Path_4" data-name="Path 4" d="M36.722,6.275A21.4,21.4,0,0,0,3.036,32.091L0,43.178,11.346,40.2a21.388,21.388,0,0,0,10.227,2.6h.009A21.4,21.4,0,0,0,36.722,6.275ZM21.582,39.194h-.007a17.767,17.767,0,0,1-9.054-2.479l-.65-.385L5.139,38.094l1.8-6.562-.423-.673a17.79,17.79,0,1,1,15.07,8.334Z" fill="#e0e0e0"/>
  <path id="Path_5" data-name="Path 5" d="M27.875,62.282l2.9-10.58a20.425,20.425,0,1,1,17.7,10.226h-.009a20.418,20.418,0,0,1-9.76-2.485L27.875,62.282Z" transform="translate(-26.893 -20.335)" fill="url(#linear-gradient)"/>
  <path id="Path_6" data-name="Path 6" d="M312.752,323.954c-.4-.88-.813-.9-1.19-.913-.308-.013-.661-.012-1.013-.012a1.942,1.942,0,0,0-1.41.661,5.926,5.926,0,0,0-1.85,4.409,10.284,10.284,0,0,0,2.159,5.467c.264.352,3.657,5.86,9.03,7.979,4.466,1.761,5.374,1.411,6.344,1.323s3.128-1.278,3.568-2.513a4.416,4.416,0,0,0,.308-2.513c-.132-.22-.485-.352-1.013-.617s-3.128-1.543-3.612-1.72-.837-.264-1.19.265-1.365,1.719-1.673,2.072-.617.4-1.146.133a14.459,14.459,0,0,1-4.251-2.624,15.924,15.924,0,0,1-2.941-3.661c-.308-.529-.033-.815.232-1.079.237-.237.529-.617.793-.926a3.624,3.624,0,0,0,.528-.881.973.973,0,0,0-.044-.926C314.249,327.613,313.222,325,312.752,323.954Z" transform="translate(-296.458 -311.642)" fill="#fff" fill-rule="evenodd"/>
  <path id="Path_7" data-name="Path 7" d="M43.3,6.317A21.159,21.159,0,0,0,10,31.836L7,42.8l11.216-2.941a21.142,21.142,0,0,0,10.11,2.575h.009A21.158,21.158,0,0,0,43.3,6.317ZM28.335,38.858h-.007a17.563,17.563,0,0,1-8.95-2.451l-.642-.381L12.08,37.771l1.777-6.487-.419-.665a17.585,17.585,0,1,1,14.9,8.238Z" transform="translate(-6.753 -0.11)" fill="#fff"/>
</svg>
